<!--?xml version="1.0" encoding="utf-8"?-->
<!-- Generator: Adobe Illustrator 15.1.0, SVG Export Plug-In . SVG Version: 6.00 Build 0)  -->

<svg version="1.1" id="_x32_" xmlns="http://www.w3.org/2000/svg" xmlns:xlink="http://www.w3.org/1999/xlink" x="0px" y="0px" width="512px" height="512px" viewBox="0 0 512 512" style="width: 16px; height: 16px; opacity: 1;" xml:space="preserve">
<style type="text/css">

	.st0{fill:#4B4B4B;}

</style>
<g>
	<path class="st0" d="M367.125,385.594h18.484v-51.188h-40.594c-8.281-20.531-16.438-42.438-24.203-65.609h9.594v-51.203h-25.391
		c-8.234-29.063-15.563-59.625-21.609-91.375h4.516v-23.813h11.281V83.203h-11.438c-1.328-13.75-11.391-24.922-24.563-27.969V7.203
		C263.203,3.219,259.969,0,256,0c-3.984,0-7.203,3.219-7.203,7.203v48.031c-13.172,3.047-23.234,14.219-24.563,27.969h-11.438
		v19.203h11.281v23.813h4.5c-6.031,31.75-13.359,62.313-21.594,91.375h-25.391v51.203h9.594
		c-7.766,23.172-15.922,45.078-24.203,65.609h-40.594v51.188h18.484C111.891,457.141,81.406,503.391,72.797,512H164
		c9.344-74.781,62.609-95.781,92-97.594c29.391,1.813,82.641,22.813,92,97.594h91.203
		C430.578,503.391,400.109,457.141,367.125,385.594z M235.406,268.797h41.188c5,21.641,10.656,43.813,17,65.609h-35.188h-4.813
		h-35.203C224.75,312.609,230.391,290.438,235.406,268.797z" style="fill: rgb(247, 249, 250);"></path>
</g>
</svg>
